<?xml version="1.0" standalone="no"?>
<!DOCTYPE svg PUBLIC "-//W3C//DTD SVG 20010904//EN"
 "http://www.w3.org/TR/2001/REC-SVG-20010904/DTD/svg10.dtd">
<svg version="1.0" xmlns="http://www.w3.org/2000/svg"
 width="251.000000pt" height="251.000000pt" viewBox="0 0 251.000000 251.000000"
 preserveAspectRatio="xMidYMid meet">
<metadata>
Created by potrace 1.14, written by Peter Selinger 2001-2017
</metadata>
<g transform="translate(0.000000,251.000000) scale(0.100000,-0.100000)"
fill="#000000" stroke="none">
<path d="M598 2158 l-77 -133 156 -5 157 -5 77 -134 76 -133 -76 -132 -77
-131 -154 0 -154 0 -76 132 c-41 73 -78 133 -82 133 -3 0 -67 -106 -142 -236
l-136 -236 137 -239 c118 -204 140 -237 150 -222 7 9 43 69 80 134 l68 119
155 0 156 0 75 -132 76 -132 -76 -133 -76 -133 -158 0 c-87 0 -157 -4 -155 -8
2 -5 37 -68 78 -140 l75 -132 591 0 590 0 77 133 c42 74 77 137 77 140 0 4
-70 7 -155 7 l-154 0 -54 93 c-30 50 -65 110 -78 133 l-23 41 75 129 74 129
156 3 157 2 77 -135 c43 -75 81 -132 85 -128 12 13 270 464 270 471 -1 14
-267 467 -274 467 -5 0 -43 -60 -85 -132 l-76 -133 -152 0 -151 0 -76 131
c-42 71 -76 133 -76 137 0 3 34 66 76 139 l76 133 154 0 c85 0 154 2 154 4 0
3 -34 64 -76 135 l-76 131 -592 0 -592 0 -76 -132z m830 -352 l102 -58 0 -157
0 -156 -128 -72 c-71 -40 -132 -73 -138 -73 -5 0 -65 33 -134 73 l-125 73 -3
155 -2 154 132 77 133 76 30 -17 c17 -9 76 -43 133 -75z m-25 -614 l127 -74
-2 -156 -3 -156 -125 -73 c-69 -40 -128 -73 -132 -73 -3 0 -64 33 -135 74
l-128 74 -3 154 -2 154 132 77 c73 42 135 76 138 74 3 -1 63 -35 133 -75z"/>
</g>
</svg>
